<?xml version="1.0" encoding="iso-8859-1"?>
<!-- Generator: Adobe Illustrator 19.0.0, SVG Export Plug-In . SVG Version: 6.00 Build 0)  -->
<svg version="1.1" id="Layer_1" xmlns="http://www.w3.org/2000/svg" xmlns:xlink="http://www.w3.org/1999/xlink" x="0px" y="0px"
	 viewBox="0 0 349.343 349.343" style="enable-background:new 0 0 349.343 349.343;" xml:space="preserve">
<g id="XMLID_1491_">
	<g id="XMLID_1492_">
		<path id="XMLID_64_" style="fill:#FCE98E;" d="M196.764,70.687h-44.517l-7.821-57.092c-1.087-7.934,5.775-14.676,13.689-13.45
			l36.78,5.701c6.548,1.015,11.025,7.157,9.986,13.702L196.764,70.687z"/>
		<path id="XMLID_1495_" style="fill:#FAE16E;" d="M194.895,5.846l-20.224-3.135v67.976h22.092l8.117-51.139
			C205.92,13.003,201.443,6.861,194.895,5.846z"/>
	</g>
	<g id="XMLID_1496_">
		<g id="XMLID_1497_">
			<path id="XMLID_57_" style="fill:#C1E8E6;" d="M232.284,349.343H117.059c-10.29,0-18.631-8.341-18.631-18.631v-172.55
				c0-20.421,16.554-36.975,36.975-36.975h78.536c20.421,0,36.975,16.554,36.975,36.975v172.551
				C250.915,341.002,242.574,349.343,232.284,349.343z"/>
			<path id="XMLID_1501_" style="fill:#A0CFF1;" d="M213.94,121.186h-39.268v228.157h57.612c10.29,0,18.631-8.341,18.631-18.631
				V158.161C250.915,137.741,234.361,121.186,213.94,121.186z"/>
		</g>
		<g id="XMLID_1502_">
			<polygon id="XMLID_1505_" style="fill:#C1E8E6;" points="144.99,268.895 204.111,268.946 204.353,64.349 145.238,64.3 			"/>
			<polygon id="XMLID_1508_" style="fill:#A0CFF1;" points="174.672,64.324 174.672,268.921 204.111,268.946 204.353,64.349 			"/>
		</g>
		<g id="XMLID_1509_">
			<path id="XMLID_1512_" style="fill:#C1E8E6;" d="M136.093,62.503c-0.003,2.837,2.298,5.136,5.137,5.137l66.865,0.073
				c2.839,0,5.138-2.294,5.145-5.134l0.009-13.206c0.006-2.835-2.293-5.137-5.132-5.141l-66.864-0.068
				c-2.842-0.002-5.142,2.296-5.145,5.134L136.093,62.503z"/>
			<path id="XMLID_1515_" style="fill:#A0CFF1;" d="M208.118,44.231l-33.446-0.034v23.478l33.424,0.036
				c2.839,0,5.138-2.294,5.145-5.134l0.009-13.206C213.256,46.537,210.957,44.235,208.118,44.231z"/>
		</g>
	</g>
	<g id="XMLID_1516_">
		<g id="XMLID_1517_">
			<path id="XMLID_37_" style="fill:#FFFFFF;" d="M210.692,307.023c-9.133-24.118-35.926-97.117-35.926-97.117
				s-26.945,65.337-35.926,87.117c-3.515,8.522,2.952,15.966,11.969,17.883c12.269,2.609,31.015,6.686,45.054,9.436
				C206.64,326.453,213.956,315.644,210.692,307.023z"/>
			<path id="XMLID_1518_" style="fill:#EAF0F5;" d="M210.692,307.022c-9.133-24.118-35.926-97.116-35.926-97.116
				s-0.034,0.082-0.095,0.229v109.858c7.335,1.549,14.757,3.088,21.192,4.348C206.64,326.453,213.956,315.644,210.692,307.022z"/>
		</g>
		<g id="XMLID_1519_">
			<path id="XMLID_34_" style="fill:#FFFFFF;" d="M210.692,153.164c-9.133,24.118-35.926,97.117-35.926,97.117
				s-26.945-65.337-35.926-87.117c-3.515-8.522,2.952-15.966,11.969-17.883c12.269-2.609,31.015-6.686,45.054-9.436
				C206.64,133.734,213.956,144.543,210.692,153.164z"/>
			<path id="XMLID_1520_" style="fill:#EAF0F5;" d="M195.863,135.845c-6.435,1.26-13.857,2.8-21.192,4.348v109.858
				c0.061,0.147,0.095,0.229,0.095,0.229s26.793-72.999,35.926-97.116C213.956,144.543,206.64,133.734,195.863,135.845z"/>
		</g>
	</g>
</g>
<g>
</g>
<g>
</g>
<g>
</g>
<g>
</g>
<g>
</g>
<g>
</g>
<g>
</g>
<g>
</g>
<g>
</g>
<g>
</g>
<g>
</g>
<g>
</g>
<g>
</g>
<g>
</g>
<g>
</g>
</svg>
